<svg width="138" height="128" viewBox="0 0 138 128" fill="none" xmlns="http://www.w3.org/2000/svg">
<path fill-rule="evenodd" clip-rule="evenodd" d="M121.301 60.3396C120.701 59.0406 120.411 57.5036 120.349 56.0566C120.195 52.4956 120.326 48.9216 120.165 45.3606C120.021 42.1716 118.883 39.2976 115.821 37.6536C113.125 36.2066 110 36.0626 107 36.0286V41.7196C108 41.7536 107.754 41.7846 107.998 41.7976C112.027 41.9956 113.377 43.2736 113.428 47.2706C113.466 50.2426 113.44 53.2166 113.488 56.1876C113.547 59.7926 114.085 63.2336 117.382 65.5096C117.438 65.5486 117.433 65.6916 117.465 65.8576C115.787 67.0496 114.459 68.5846 114.073 70.6796C113.764 72.3813 113.584 74.1038 113.533 75.8326C113.437 78.9506 113.536 82.0756 113.447 85.1936C113.377 87.6356 112.22 88.7816 109.843 89.3256C108.948 89.5316 108 89.6046 107 89.7316V95.4086C109 95.2886 110.017 95.2096 111.387 95.0616C116.543 94.5036 119.446 91.8206 120.041 86.8186C120.227 85.2506 120.206 83.6526 120.241 82.0686C120.307 79.0996 120.273 76.1166 120.539 73.1656C120.81 70.1546 123 68.4906 126 68.6566V62.7056C124 63.0636 122.157 62.1986 121.301 60.3396ZM27 46.1446C26.999 34.5956 27 49.3746 27 37.8266V36.0096C24 36.0096 20.774 35.9806 17.609 36.0236C16.324 36.0406 15.191 36.1506 13.917 36.3246C9.04 36.9886 6.689 39.2776 5.825 44.1366C5.575 45.5386 5.625 46.9956 5.604 48.4296C5.565 51.1556 5.643 53.8826 5.599 56.6076C5.544 60.0396 3.927 62.6996 0.427 62.9016C0.303 62.9086 1 63.0516 0 63.1376V68.4426C4 69.0706 5.273 70.6856 5.539 74.4016C5.581 74.9936 5.592 75.5906 5.598 76.1856C5.632 79.5056 5.594 82.8306 5.744 86.1446C5.885 89.2376 6.572 92.0015 9.495 93.6245C12.225 95.1405 16 95.2636 18 95.3426V89.6786C18 89.6306 17.79 89.5866 17.595 89.5746C13.256 89.3096 12.278 88.1316 12.252 83.7896C12.235 80.9146 12.358 78.0396 12.312 75.1646C12.254 71.5526 11.726 68.1266 8.456 65.8406C8.406 65.8056 8.455 65.6576 8.439 65.4576C10.638 64.0676 11.807 61.9416 12.125 59.3636C12.301 57.9416 12.36 56.4996 12.385 55.0646C12.435 52.0916 12.382 49.1156 12.463 46.1446C12.52 44.0566 13.853 42.5346 15.554 42.1926C17.166 41.8676 18 41.8776 21 41.7266V43.7826C21 54.0926 20.946 55.1996 21 65.5096C23.813 42.0026 19.715 40.6676 23.5 42.1926C25.558 43.0216 23.636 45.5866 26 46.1446C26.395 43.8326 26.6884 43.6956 27.0114 41.7976C22.6544 40.5476 27 50.5366 27 46.1446Z" fill="#2A4D80"/>
<rect x="20" y="42" width="7" height="24" fill="#F5F5F5"/>
<path d="M38.89 44.42L40.64 43.86C42.2267 43.86 43.02 45.96 43.02 50.16L45.19 66.33L45.47 66.61L53.52 63.67C54.5933 63.67 55.1767 64.4867 55.27 66.12C55.27 67.3333 52.3067 68.8033 46.38 70.53L46.1 70.67V70.95C46.1 71.93 47.64 77.04 50.72 86.28V86.42C50.72 87.3067 49.9967 88.0533 48.55 88.66C47.1967 88.66 46.31 87.05 45.89 83.83C44.8167 81.4967 43.51 77.6467 41.97 72.28H41.69C35.5767 73.54 32.52 74.6133 32.52 75.5C29.16 82.78 26.6167 86.42 24.89 86.42C23.91 86.42 23.3267 85.79 23.14 84.53C23.14 83.41 24.3767 81.2167 26.85 77.95L27.97 75.5H26.22L24.89 75.78C23.1633 75.36 22.3 74.4733 22.3 73.12C23 71.4867 24.0267 70.67 25.38 70.67L27.13 71.37C29.7433 71.37 31.05 70.4133 31.05 68.5C33.43 62.9 36.0433 54.8733 38.89 44.42ZM39.52 57.16L35.39 69.62C39.2167 68.8733 41.13 68.15 41.13 67.45C40.43 60.59 39.8933 57.16 39.52 57.16ZM63.4376 46.66C65.3509 44.4667 67.4042 43.37 69.5976 43.37C71.7909 43.37 73.0976 45.05 73.5176 48.41V48.62C73.5176 50.3 72.5609 53.9633 70.6476 59.61L73.9376 58.91C77.9509 58.91 80.2842 61.4767 80.9376 66.61V67.66C80.9376 73.82 77.0642 79.4433 69.3176 84.53C66.7976 85.51 64.9776 86 63.8576 86C60.0776 86 57.4642 83.8067 56.0176 79.42C56.1109 78.9067 56.6942 78.1833 57.7676 77.25C58.2809 56.1567 58.7242 45.61 59.0976 45.61C59.8909 44.8167 60.6142 44.42 61.2676 44.42C62.5276 44.8867 63.1576 45.6333 63.1576 46.66H63.4376ZM62.7376 65.91H63.0176C66.8442 58.6767 68.8742 53.0767 69.1076 49.11V47.5H68.4076C67.4276 47.5 66.1209 50.1367 64.4876 55.41C63.3209 60.4033 62.7376 63.9033 62.7376 65.91ZM65.3976 70.25L64.3476 70.67L62.5976 70.53V70.67L62.3176 71.58V78.86L62.1076 81.45L63.6476 81.87C67.6142 81.87 71.5342 78.8833 75.4076 72.91C76.4809 70.25 77.0176 68.0567 77.0176 66.33C77.0176 64.1833 75.9909 63.11 73.9376 63.11H73.6576C71.4176 63.11 68.6642 65.49 65.3976 70.25Z" fill="#FF7F0E"/>
<path d="M92.2488 52.0642C94.1053 51.3513 95.0828 49.2434 94.4328 47.3572C93.783 45.4708 91.751 44.5198 89.8947 45.2331C88.0385 45.9465 87.0608 48.0537 87.711 49.9402C88.361 51.8266 90.393 52.7774 92.2488 52.0642V52.0642Z" fill="#FF7F0E"/>
<path d="M91.4826 42.397C90.6625 42.3637 89.844 42.4993 89.0744 42.7962C85.8924 44.019 84.1983 47.6533 85.3219 50.9137C86.4455 54.174 89.9711 55.8159 93.1532 54.5931V54.5925L93.1535 54.5923C96.3352 53.3694 98.0293 49.7359 96.9057 46.4754C96.0631 44.0304 93.8694 42.496 91.4826 42.3972V42.397ZM91.4358 43.7202C93.3264 43.7913 95.0385 45.0007 95.7014 46.9247C96.5856 49.4902 95.2604 52.3644 92.71 53.3445V53.3449H92.7096C90.1588 54.3247 87.4102 53.0296 86.5262 50.4646C85.6422 47.8993 86.9676 45.0247 89.5182 44.0444C90.1309 43.8071 90.7823 43.6969 91.4358 43.7202V43.7202ZM94.983 56.5731C94.5246 56.5541 94.0671 56.6297 93.6369 56.7956C91.8596 57.4785 90.91 59.5119 91.5393 61.3374C92.1682 63.1627 94.1444 64.081 95.9219 63.3979C97.6992 62.715 98.6485 60.6822 98.0192 58.8567C97.5477 57.4876 96.318 56.6288 94.983 56.5731V56.5731ZM94.9494 57.5189C95.9299 57.5548 96.8151 58.1813 97.1582 59.1776C97.6162 60.506 96.9309 61.9966 95.6049 62.5062C94.2785 63.0159 92.8578 62.3447 92.4002 61.0165C91.9422 59.6879 92.6278 58.1971 93.9539 57.6879C94.272 57.5646 94.6102 57.5072 94.9494 57.5189V57.5189ZM81.4076 49.9572C81.0793 49.9436 80.7515 49.9978 80.4434 50.1166C79.1703 50.6061 78.4905 52.0621 78.941 53.3694C79.3918 54.6768 80.8073 55.3355 82.0803 54.8462C83.3532 54.3566 84.033 52.9006 83.5824 51.5933C83.2446 50.6128 82.3641 49.9972 81.4076 49.9572V49.9572ZM81.3836 50.6348C82.086 50.6606 82.7198 51.1095 82.9657 51.8231C83.2936 52.7745 82.8026 53.8419 81.853 54.2069C80.9033 54.5719 79.8856 54.0912 79.5576 53.1397C79.2295 52.1883 79.7207 51.1209 80.6703 50.7558C80.8982 50.6675 81.1405 50.6264 81.3836 50.6348V50.6348Z" fill="#2C7FB8"/>
<path d="M85.3086 50.3447L83.0137 51.2271L83.377 52.2494L85.6719 51.3678L85.3086 50.3447ZM93.6176 53.705L92.24 54.2185L93.3623 57.4748L94.7398 56.9615L93.6176 53.705ZM98.6889 38.5122C98.0363 38.4893 97.4007 38.7309 96.9162 39.186C95.9084 40.1311 95.8127 41.7403 96.717 42.7624C97.6217 43.7848 99.1779 43.8351 100.185 42.8898C101.193 41.9449 101.289 40.3359 100.385 39.3138C99.9322 38.8027 99.3168 38.5346 98.6889 38.5122V38.5122ZM98.6633 39.1903C99.1238 39.2061 99.573 39.4031 99.9023 39.7753C100.561 40.5193 100.498 41.6792 99.7467 42.384C98.9955 43.0889 97.8578 43.0452 97.1992 42.3011C96.5406 41.5569 96.6031 40.3972 97.3549 39.6922C97.712 39.3549 98.1811 39.175 98.6633 39.1905V39.1903Z" fill="#2C7FB8"/>
<path d="M96.669 42.0645L94.8516 43.7666L95.5531 44.5765L97.3701 42.8745L96.669 42.0645ZM89.2203 57.385C88.357 57.2383 87.524 57.84 87.3596 58.7311C87.1951 59.6218 87.7715 60.4745 88.635 60.6209C89.4979 60.7674 90.3305 60.1661 90.4953 59.2752V59.2748C90.6594 58.3843 90.0834 57.5314 89.2203 57.385V57.385ZM89.1518 57.8213H89.1522C89.7895 57.9297 90.199 58.5367 90.0779 59.1915C89.9568 59.847 89.3406 60.2929 88.7031 60.1846C88.0652 60.0764 87.6559 59.4694 87.777 58.8143C87.8981 58.1589 88.5141 57.7134 89.1518 57.8213V57.8213Z" fill="#2C7FB8"/>
<path d="M90.2885 58.8754L90.1791 59.5738L91.7293 59.8364L91.8387 59.1381L90.2885 58.8754ZM79.6803 45.9108C79.4673 45.9011 79.2545 45.9355 79.0543 46.0119C78.227 46.3266 77.7825 47.2701 78.0719 48.1197C78.3616 48.9694 79.2787 49.3998 80.1059 49.085C80.9327 48.7706 81.3768 47.8274 81.0875 46.978L81.0879 46.9776C80.8707 46.3406 80.3008 45.939 79.6803 45.9108V45.9108ZM79.6631 46.3503C80.1186 46.3686 80.5291 46.6611 80.6873 47.1248L80.687 47.1252C80.8979 47.7436 80.5768 48.435 79.9598 48.6696C79.3426 48.9046 78.6832 48.5904 78.4725 47.9719C78.2616 47.3534 78.5827 46.6621 79.2 46.4273H79.2004C79.3483 46.3705 79.5055 46.3443 79.6631 46.3503V46.3503Z" fill="#2C7FB8"/>
<path d="M80.3356 48.7075L79.6948 48.944L80.2112 50.4591L80.8522 50.223L80.3356 48.7075ZM99.4899 50.5639C98.87 50.5497 98.2653 50.9106 97.981 51.5263C97.597 52.3428 97.9419 53.3382 98.7378 53.7003C99.5323 54.0688 100.48 53.7011 100.859 52.8807C101.243 52.065 100.899 51.0703 100.104 50.7073H100.103C99.9102 50.6174 99.7017 50.5686 99.4901 50.5639H99.4899ZM99.479 51.0057C99.6348 51.009 99.7883 51.0448 99.9306 51.1109L99.9321 51.1113C100.508 51.3733 100.758 52.0908 100.477 52.6871L100.476 52.6888C100.196 53.2969 99.4931 53.5679 98.9095 53.2965L98.9079 53.2957C98.3317 53.0337 98.0819 52.3162 98.3628 51.7199L98.3636 51.7182C98.5741 51.262 99.0218 50.9959 99.4788 51.0057H99.479Z" fill="#2C7FB8"/>
<path d="M96.9032 50.5605L96.5278 51.2061L97.9517 51.8683L98.2292 51.2227L96.9032 50.5605Z" fill="#2C7FB8"/>
<path d="M95.3428 61.7316C96.2313 61.3902 96.6992 60.3813 96.3879 59.4786C96.0766 58.5755 95.1043 58.1205 94.2158 58.4619C93.3274 58.8032 92.8594 59.8121 93.1703 60.7148C93.4817 61.6179 94.4543 62.0729 95.3424 61.7316H95.3428ZM81.6717 53.671C82.3186 53.4224 82.6588 52.6885 82.4324 52.0314C82.2059 51.3745 81.4983 51.043 80.852 51.2916C80.2051 51.5403 79.8647 52.2741 80.091 52.9311C80.3176 53.5884 81.0252 53.9195 81.6717 53.671V53.671ZM98.9611 42.2249C99.6076 41.9765 99.9483 41.2424 99.7217 40.5857C99.4951 39.9284 98.7877 39.5973 98.1412 39.8457C97.4945 40.0942 97.1541 40.8283 97.3803 41.4854C97.6069 42.1425 98.3145 42.4738 98.9611 42.2251V42.2249Z" fill="#FF7F0E"/>
<path d="M98.4803 53.46L96.458 57.1162L97.0475 57.469L99.0695 53.8128L98.4803 53.46Z" fill="#2C7FB8"/>
</svg>
